<svg width="1227" height="367" viewBox="0 0 1227 367" fill="none" xmlns="http://www.w3.org/2000/svg">
<path d="M40.2437 112.714C33.5117 112.714 27.3237 111.15 21.6797 108.022C16.1037 104.894 11.6497 100.542 8.31766 94.966C5.05366 89.322 3.42166 82.998 3.42166 75.994C3.42166 68.99 5.05366 62.7 8.31766 57.124C11.6497 51.548 16.1037 47.196 21.6797 44.068C27.3237 40.94 33.5117 39.376 40.2437 39.376C46.9757 39.376 53.1297 40.94 58.7057 44.068C64.3497 47.196 68.7697 51.548 71.9657 57.124C75.2297 62.7 76.8617 68.99 76.8617 75.994C76.8617 82.998 75.2297 89.322 71.9657 94.966C68.7017 100.542 64.2817 104.894 58.7057 108.022C53.1297 111.15 46.9757 112.714 40.2437 112.714ZM40.2437 96.802C45.9557 96.802 50.5117 94.898 53.9117 91.09C57.3797 87.282 59.1137 82.25 59.1137 75.994C59.1137 69.67 57.3797 64.638 53.9117 60.898C50.5117 57.09 45.9557 55.186 40.2437 55.186C34.4637 55.186 29.8397 57.056 26.3717 60.796C22.9717 64.536 21.2717 69.602 21.2717 75.994C21.2717 82.318 22.9717 87.384 26.3717 91.192C29.8397 94.932 34.4637 96.802 40.2437 96.802ZM148.581 40.396V112H131.139V82.522H104.007V112H86.5652V40.396H104.007V68.446H131.139V40.396H148.581ZM230.32 63.04C229.028 60.66 227.158 58.858 224.71 57.634C222.33 56.342 219.508 55.696 216.244 55.696C210.6 55.696 206.078 57.566 202.678 61.306C199.278 64.978 197.578 69.908 197.578 76.096C197.578 82.692 199.346 87.86 202.882 91.6C206.486 95.272 211.416 97.108 217.672 97.108C221.956 97.108 225.56 96.02 228.484 93.844C231.476 91.668 233.652 88.54 235.012 84.46H212.878V71.608H250.822V87.826C249.53 92.178 247.32 96.224 244.192 99.964C241.132 103.704 237.222 106.73 232.462 109.042C227.702 111.354 222.33 112.51 216.346 112.51C209.274 112.51 202.95 110.98 197.374 107.92C191.866 104.792 187.548 100.474 184.42 94.966C181.36 89.458 179.83 83.168 179.83 76.096C179.83 69.024 181.36 62.734 184.42 57.226C187.548 51.65 191.866 47.332 197.374 44.272C202.882 41.144 209.172 39.58 216.244 39.58C224.812 39.58 232.02 41.654 237.868 45.802C243.784 49.95 247.694 55.696 249.598 63.04H230.32ZM294.347 112.714C287.615 112.714 281.427 111.15 275.783 108.022C270.207 104.894 265.753 100.542 262.421 94.966C259.157 89.322 257.525 82.998 257.525 75.994C257.525 68.99 259.157 62.7 262.421 57.124C265.753 51.548 270.207 47.196 275.783 44.068C281.427 40.94 287.615 39.376 294.347 39.376C301.079 39.376 307.233 40.94 312.809 44.068C318.453 47.196 322.873 51.548 326.069 57.124C329.333 62.7 330.965 68.99 330.965 75.994C330.965 82.998 329.333 89.322 326.069 94.966C322.805 100.542 318.385 104.894 312.809 108.022C307.233 111.15 301.079 112.714 294.347 112.714ZM294.347 96.802C300.059 96.802 304.615 94.898 308.015 91.09C311.483 87.282 313.217 82.25 313.217 75.994C313.217 69.67 311.483 64.638 308.015 60.898C304.615 57.09 300.059 55.186 294.347 55.186C288.567 55.186 283.943 57.056 280.475 60.796C277.075 64.536 275.375 69.602 275.375 75.994C275.375 82.318 277.075 87.384 280.475 91.192C283.943 94.932 288.567 96.802 294.347 96.802ZM374.533 112.714C367.801 112.714 361.613 111.15 355.969 108.022C350.393 104.894 345.939 100.542 342.607 94.966C339.343 89.322 337.711 82.998 337.711 75.994C337.711 68.99 339.343 62.7 342.607 57.124C345.939 51.548 350.393 47.196 355.969 44.068C361.613 40.94 367.801 39.376 374.533 39.376C381.265 39.376 387.419 40.94 392.995 44.068C398.639 47.196 403.059 51.548 406.255 57.124C409.519 62.7 411.151 68.99 411.151 75.994C411.151 82.998 409.519 89.322 406.255 94.966C402.991 100.542 398.571 104.894 392.995 108.022C387.419 111.15 381.265 112.714 374.533 112.714ZM374.533 96.802C380.245 96.802 384.801 94.898 388.201 91.09C391.669 87.282 393.403 82.25 393.403 75.994C393.403 69.67 391.669 64.638 388.201 60.898C384.801 57.09 380.245 55.186 374.533 55.186C368.753 55.186 364.129 57.056 360.661 60.796C357.261 64.536 355.561 69.602 355.561 75.994C355.561 82.318 357.261 87.384 360.661 91.192C364.129 94.932 368.753 96.802 374.533 96.802ZM447.68 40.396C455.228 40.396 461.824 41.892 467.468 44.884C473.112 47.876 477.464 52.092 480.524 57.532C483.652 62.904 485.216 69.126 485.216 76.198C485.216 83.202 483.652 89.424 480.524 94.864C477.464 100.304 473.078 104.52 467.366 107.512C461.722 110.504 455.16 112 447.68 112H420.854V40.396H447.68ZM446.558 96.904C453.154 96.904 458.288 95.102 461.96 91.498C465.632 87.894 467.468 82.794 467.468 76.198C467.468 69.602 465.632 64.468 461.96 60.796C458.288 57.124 453.154 55.288 446.558 55.288H438.296V96.904H446.558ZM513.732 95.884L502.41 125.158H491.292L497.208 95.884H513.732ZM607.268 40.396L582.482 88.336V112H565.04V88.336L540.254 40.396H560.042L573.914 70.384L587.684 40.396H607.268ZM648.16 112.714C641.428 112.714 635.24 111.15 629.596 108.022C624.02 104.894 619.566 100.542 616.234 94.966C612.97 89.322 611.338 82.998 611.338 75.994C611.338 68.99 612.97 62.7 616.234 57.124C619.566 51.548 624.02 47.196 629.596 44.068C635.24 40.94 641.428 39.376 648.16 39.376C654.892 39.376 661.046 40.94 666.622 44.068C672.266 47.196 676.686 51.548 679.882 57.124C683.146 62.7 684.778 68.99 684.778 75.994C684.778 82.998 683.146 89.322 679.882 94.966C676.618 100.542 672.198 104.894 666.622 108.022C661.046 111.15 654.892 112.714 648.16 112.714ZM648.16 96.802C653.872 96.802 658.428 94.898 661.828 91.09C665.296 87.282 667.03 82.25 667.03 75.994C667.03 69.67 665.296 64.638 661.828 60.898C658.428 57.09 653.872 55.186 648.16 55.186C642.38 55.186 637.756 57.056 634.288 60.796C630.888 64.536 629.188 69.602 629.188 75.994C629.188 82.318 630.888 87.384 634.288 91.192C637.756 94.932 642.38 96.802 648.16 96.802ZM711.617 40.396V83.236C711.617 87.52 712.671 90.818 714.779 93.13C716.887 95.442 719.981 96.598 724.061 96.598C728.141 96.598 731.269 95.442 733.445 93.13C735.621 90.818 736.709 87.52 736.709 83.236V40.396H754.151V83.134C754.151 89.526 752.791 94.932 750.071 99.352C747.351 103.772 743.679 107.104 739.055 109.348C734.499 111.592 729.399 112.714 723.755 112.714C718.111 112.714 713.045 111.626 708.557 109.45C704.137 107.206 700.635 103.874 698.051 99.454C695.467 94.966 694.175 89.526 694.175 83.134V40.396H711.617ZM770.377 40.396H788.227L776.803 67.732H765.073L770.377 40.396ZM834.989 112L820.097 84.97H815.915V112H798.473V40.396H827.747C833.391 40.396 838.185 41.382 842.129 43.354C846.141 45.326 849.133 48.046 851.105 51.514C853.077 54.914 854.063 58.722 854.063 62.938C854.063 67.698 852.703 71.948 849.983 75.688C847.331 79.428 843.387 82.08 838.151 83.644L854.675 112H834.989ZM815.915 72.628H826.727C829.923 72.628 832.303 71.846 833.867 70.282C835.499 68.718 836.315 66.508 836.315 63.652C836.315 60.932 835.499 58.79 833.867 57.226C832.303 55.662 829.923 54.88 826.727 54.88H815.915V72.628ZM882.454 54.37V68.854H905.812V82.318H882.454V98.026H908.872V112H865.012V40.396H908.872V54.37H882.454ZM1003.83 40.396V112H986.385V82.522H959.253V112H941.811V40.396H959.253V68.446H986.385V40.396H1003.83ZM1033.86 54.37V68.854H1057.22V82.318H1033.86V98.026H1060.28V112H1016.42V40.396H1060.28V54.37H1033.86ZM1108.12 112L1093.23 84.97H1089.04V112H1071.6V40.396H1100.88C1106.52 40.396 1111.31 41.382 1115.26 43.354C1119.27 45.326 1122.26 48.046 1124.23 51.514C1126.21 54.914 1127.19 58.722 1127.19 62.938C1127.19 67.698 1125.83 71.948 1123.11 75.688C1120.46 79.428 1116.52 82.08 1111.28 83.644L1127.8 112H1108.12ZM1089.04 72.628H1099.86C1103.05 72.628 1105.43 71.846 1107 70.282C1108.63 68.718 1109.44 66.508 1109.44 63.652C1109.44 60.932 1108.63 58.79 1107 57.226C1105.43 55.662 1103.05 54.88 1099.86 54.88H1089.04V72.628ZM1155.58 54.37V68.854H1178.94V82.318H1155.58V98.026H1182V112H1138.14V40.396H1182V54.37H1155.58ZM1216.27 37.846L1214.23 86.704H1199.44L1197.4 37.846H1216.27ZM1207.09 112.816C1204.03 112.816 1201.52 111.932 1199.55 110.164C1197.64 108.328 1196.69 106.084 1196.69 103.432C1196.69 100.712 1197.64 98.434 1199.55 96.598C1201.52 94.762 1204.03 93.844 1207.09 93.844C1210.09 93.844 1212.53 94.762 1214.44 96.598C1216.41 98.434 1217.4 100.712 1217.4 103.432C1217.4 106.084 1216.41 108.328 1214.44 110.164C1212.53 111.932 1210.09 112.816 1207.09 112.816Z" fill="#4345C4"/>
<path d="M37.8052 179.37V225H26.6902V179.37H37.8052ZM105.914 188.34C110.421 188.34 113.996 189.705 116.639 192.435C119.326 195.165 120.669 198.957 120.669 203.81V225H109.619V205.305C109.619 202.965 108.991 201.167 107.734 199.91C106.521 198.61 104.831 197.96 102.664 197.96C100.498 197.96 98.7862 198.61 97.5295 199.91C96.3162 201.167 95.7095 202.965 95.7095 205.305V225H84.6595V205.305C84.6595 202.965 84.0312 201.167 82.7745 199.91C81.5612 198.61 79.8712 197.96 77.7045 197.96C75.5378 197.96 73.8262 198.61 72.5695 199.91C71.3562 201.167 70.7495 202.965 70.7495 205.305V225H59.6345V188.73H70.7495V193.28C71.8762 191.763 73.3495 190.572 75.1695 189.705C76.9895 188.795 79.0478 188.34 81.3445 188.34C84.0745 188.34 86.5012 188.925 88.6245 190.095C90.7912 191.265 92.4812 192.933 93.6945 195.1C94.9512 193.107 96.6628 191.482 98.8295 190.225C100.996 188.968 103.358 188.34 105.914 188.34ZM126.233 206.8C126.233 203.073 126.926 199.802 128.313 196.985C129.743 194.168 131.671 192.002 134.098 190.485C136.525 188.968 139.233 188.21 142.223 188.21C144.78 188.21 147.011 188.73 148.918 189.77C150.868 190.81 152.363 192.175 153.403 193.865V188.73H164.518V225H153.403V219.865C152.32 221.555 150.803 222.92 148.853 223.96C146.946 225 144.715 225.52 142.158 225.52C139.211 225.52 136.525 224.762 134.098 223.245C131.671 221.685 129.743 219.497 128.313 216.68C126.926 213.82 126.233 210.527 126.233 206.8ZM153.403 206.865C153.403 204.092 152.623 201.903 151.063 200.3C149.546 198.697 147.683 197.895 145.473 197.895C143.263 197.895 141.378 198.697 139.818 200.3C138.301 201.86 137.543 204.027 137.543 206.8C137.543 209.573 138.301 211.783 139.818 213.43C141.378 215.033 143.263 215.835 145.473 215.835C147.683 215.835 149.546 215.033 151.063 213.43C152.623 211.827 153.403 209.638 153.403 206.865ZM170.349 206.8C170.349 203.073 171.043 199.802 172.429 196.985C173.859 194.168 175.788 192.002 178.214 190.485C180.641 188.968 183.349 188.21 186.339 188.21C188.723 188.21 190.889 188.708 192.839 189.705C194.833 190.702 196.393 192.045 197.519 193.735V176.9H208.634V225H197.519V219.8C196.479 221.533 194.984 222.92 193.034 223.96C191.128 225 188.896 225.52 186.339 225.52C183.349 225.52 180.641 224.762 178.214 223.245C175.788 221.685 173.859 219.497 172.429 216.68C171.043 213.82 170.349 210.527 170.349 206.8ZM197.519 206.865C197.519 204.092 196.739 201.903 195.179 200.3C193.663 198.697 191.799 197.895 189.589 197.895C187.379 197.895 185.494 198.697 183.934 200.3C182.418 201.86 181.659 204.027 181.659 206.8C181.659 209.573 182.418 211.783 183.934 213.43C185.494 215.033 187.379 215.835 189.589 215.835C191.799 215.835 193.663 215.033 195.179 213.43C196.739 211.827 197.519 209.638 197.519 206.865ZM250.865 206.28C250.865 207.32 250.8 208.403 250.67 209.53H225.515C225.689 211.783 226.404 213.517 227.66 214.73C228.96 215.9 230.542 216.485 232.405 216.485C235.179 216.485 237.107 215.315 238.19 212.975H250.02C249.414 215.358 248.309 217.503 246.705 219.41C245.145 221.317 243.174 222.812 240.79 223.895C238.407 224.978 235.742 225.52 232.795 225.52C229.242 225.52 226.079 224.762 223.305 223.245C220.532 221.728 218.365 219.562 216.805 216.745C215.245 213.928 214.465 210.635 214.465 206.865C214.465 203.095 215.224 199.802 216.74 196.985C218.3 194.168 220.467 192.002 223.24 190.485C226.014 188.968 229.199 188.21 232.795 188.21C236.305 188.21 239.425 188.947 242.155 190.42C244.885 191.893 247.009 193.995 248.525 196.725C250.085 199.455 250.865 202.64 250.865 206.28ZM239.49 203.355C239.49 201.448 238.84 199.932 237.54 198.805C236.24 197.678 234.615 197.115 232.665 197.115C230.802 197.115 229.22 197.657 227.92 198.74C226.664 199.823 225.884 201.362 225.58 203.355H239.49ZM290.719 215.575V225H285.064C281.034 225 277.892 224.025 275.639 222.075C273.385 220.082 272.259 216.853 272.259 212.39V197.96H267.839V188.73H272.259V179.89H283.374V188.73H290.654V197.96H283.374V212.52C283.374 213.603 283.634 214.383 284.154 214.86C284.674 215.337 285.54 215.575 286.754 215.575H290.719ZM319.205 188.34C323.365 188.34 326.702 189.727 329.215 192.5C331.728 195.23 332.985 199 332.985 203.81V225H321.935V205.305C321.935 202.878 321.307 200.993 320.05 199.65C318.793 198.307 317.103 197.635 314.98 197.635C312.857 197.635 311.167 198.307 309.91 199.65C308.653 200.993 308.025 202.878 308.025 205.305V225H296.91V176.9H308.025V193.605C309.152 192.002 310.69 190.723 312.64 189.77C314.59 188.817 316.778 188.34 319.205 188.34ZM346.299 184.96C344.349 184.96 342.745 184.397 341.489 183.27C340.275 182.1 339.669 180.67 339.669 178.98C339.669 177.247 340.275 175.817 341.489 174.69C342.745 173.52 344.349 172.935 346.299 172.935C348.205 172.935 349.765 173.52 350.979 174.69C352.235 175.817 352.864 177.247 352.864 178.98C352.864 180.67 352.235 182.1 350.979 183.27C349.765 184.397 348.205 184.96 346.299 184.96ZM351.824 188.73V225H340.709V188.73H351.824ZM374.634 225.52C371.47 225.52 368.654 224.978 366.184 223.895C363.714 222.812 361.764 221.338 360.334 219.475C358.904 217.568 358.102 215.445 357.929 213.105H368.914C369.044 214.362 369.629 215.38 370.669 216.16C371.709 216.94 372.987 217.33 374.504 217.33C375.89 217.33 376.952 217.07 377.689 216.55C378.469 215.987 378.859 215.272 378.859 214.405C378.859 213.365 378.317 212.607 377.234 212.13C376.15 211.61 374.395 211.047 371.969 210.44C369.369 209.833 367.202 209.205 365.469 208.555C363.735 207.862 362.24 206.8 360.984 205.37C359.727 203.897 359.099 201.925 359.099 199.455C359.099 197.375 359.662 195.49 360.789 193.8C361.959 192.067 363.649 190.702 365.859 189.705C368.112 188.708 370.777 188.21 373.854 188.21C378.404 188.21 381.979 189.337 384.579 191.59C387.222 193.843 388.739 196.833 389.129 200.56H378.859C378.685 199.303 378.122 198.307 377.169 197.57C376.259 196.833 375.045 196.465 373.529 196.465C372.229 196.465 371.232 196.725 370.539 197.245C369.845 197.722 369.499 198.393 369.499 199.26C369.499 200.3 370.04 201.08 371.124 201.6C372.25 202.12 373.984 202.64 376.324 203.16C379.01 203.853 381.199 204.547 382.889 205.24C384.579 205.89 386.052 206.973 387.309 208.49C388.609 209.963 389.28 211.957 389.324 214.47C389.324 216.593 388.717 218.5 387.504 220.19C386.334 221.837 384.622 223.137 382.369 224.09C380.159 225.043 377.58 225.52 374.634 225.52ZM415.423 184.96C413.473 184.96 411.87 184.397 410.613 183.27C409.4 182.1 408.793 180.67 408.793 178.98C408.793 177.247 409.4 175.817 410.613 174.69C411.87 173.52 413.473 172.935 415.423 172.935C417.33 172.935 418.89 173.52 420.103 174.69C421.36 175.817 421.988 177.247 421.988 178.98C421.988 180.67 421.36 182.1 420.103 183.27C418.89 184.397 417.33 184.96 415.423 184.96ZM421.013 229.68C421.013 234.143 419.886 237.35 417.633 239.3C415.38 241.293 412.238 242.29 408.208 242.29H403.853V232.865H406.518C407.731 232.865 408.598 232.627 409.118 232.15C409.638 231.673 409.898 230.893 409.898 229.81V188.73H421.013V229.68ZM464.82 188.73V225H453.705V220.06C452.578 221.663 451.04 222.963 449.09 223.96C447.183 224.913 445.06 225.39 442.72 225.39C439.946 225.39 437.498 224.783 435.375 223.57C433.251 222.313 431.605 220.515 430.435 218.175C429.265 215.835 428.68 213.083 428.68 209.92V188.73H439.73V208.425C439.73 210.852 440.358 212.737 441.615 214.08C442.871 215.423 444.561 216.095 446.685 216.095C448.851 216.095 450.563 215.423 451.82 214.08C453.076 212.737 453.705 210.852 453.705 208.425V188.73H464.82ZM487.558 225.52C484.395 225.52 481.578 224.978 479.108 223.895C476.638 222.812 474.688 221.338 473.258 219.475C471.828 217.568 471.027 215.445 470.853 213.105H481.838C481.968 214.362 482.553 215.38 483.593 216.16C484.633 216.94 485.912 217.33 487.428 217.33C488.815 217.33 489.877 217.07 490.613 216.55C491.393 215.987 491.783 215.272 491.783 214.405C491.783 213.365 491.242 212.607 490.158 212.13C489.075 211.61 487.32 211.047 484.893 210.44C482.293 209.833 480.127 209.205 478.393 208.555C476.66 207.862 475.165 206.8 473.908 205.37C472.652 203.897 472.023 201.925 472.023 199.455C472.023 197.375 472.587 195.49 473.713 193.8C474.883 192.067 476.573 190.702 478.783 189.705C481.037 188.708 483.702 188.21 486.778 188.21C491.328 188.21 494.903 189.337 497.503 191.59C500.147 193.843 501.663 196.833 502.053 200.56H491.783C491.61 199.303 491.047 198.307 490.093 197.57C489.183 196.833 487.97 196.465 486.453 196.465C485.153 196.465 484.157 196.725 483.463 197.245C482.77 197.722 482.423 198.393 482.423 199.26C482.423 200.3 482.965 201.08 484.048 201.6C485.175 202.12 486.908 202.64 489.248 203.16C491.935 203.853 494.123 204.547 495.813 205.24C497.503 205.89 498.977 206.973 500.233 208.49C501.533 209.963 502.205 211.957 502.248 214.47C502.248 216.593 501.642 218.5 500.428 220.19C499.258 221.837 497.547 223.137 495.293 224.09C493.083 225.043 490.505 225.52 487.558 225.52ZM529.264 215.575V225H523.609C519.579 225 516.437 224.025 514.184 222.075C511.93 220.082 510.804 216.853 510.804 212.39V197.96H506.384V188.73H510.804V179.89H521.919V188.73H529.199V197.96H521.919V212.52C521.919 213.603 522.179 214.383 522.699 214.86C523.219 215.337 524.085 215.575 525.299 215.575H529.264ZM567.429 197.96H561.449V225H550.334V197.96H546.304V188.73H550.334V187.69C550.334 183.227 551.613 179.847 554.169 177.55C556.726 175.21 560.474 174.04 565.414 174.04C566.238 174.04 566.844 174.062 567.234 174.105V183.53C565.111 183.4 563.616 183.703 562.749 184.44C561.883 185.177 561.449 186.498 561.449 188.405V188.73H567.429V197.96ZM589.162 225.52C585.609 225.52 582.402 224.762 579.542 223.245C576.725 221.728 574.494 219.562 572.847 216.745C571.244 213.928 570.442 210.635 570.442 206.865C570.442 203.138 571.265 199.867 572.912 197.05C574.559 194.19 576.812 192.002 579.672 190.485C582.532 188.968 585.739 188.21 589.292 188.21C592.845 188.21 596.052 188.968 598.912 190.485C601.772 192.002 604.025 194.19 605.672 197.05C607.319 199.867 608.142 203.138 608.142 206.865C608.142 210.592 607.297 213.885 605.607 216.745C603.96 219.562 601.685 221.728 598.782 223.245C595.922 224.762 592.715 225.52 589.162 225.52ZM589.162 215.9C591.285 215.9 593.084 215.12 594.557 213.56C596.074 212 596.832 209.768 596.832 206.865C596.832 203.962 596.095 201.73 594.622 200.17C593.192 198.61 591.415 197.83 589.292 197.83C587.125 197.83 585.327 198.61 583.897 200.17C582.467 201.687 581.752 203.918 581.752 206.865C581.752 209.768 582.445 212 583.832 213.56C585.262 215.12 587.039 215.9 589.162 215.9ZM625.154 194.775C626.454 192.782 628.079 191.222 630.029 190.095C631.979 188.925 634.145 188.34 636.529 188.34V200.105H633.474C630.7 200.105 628.62 200.712 627.234 201.925C625.847 203.095 625.154 205.175 625.154 208.165V225H614.039V188.73H625.154V194.775ZM666.731 193.865C667.814 192.175 669.309 190.81 671.216 189.77C673.123 188.73 675.354 188.21 677.911 188.21C680.901 188.21 683.609 188.968 686.036 190.485C688.463 192.002 690.369 194.168 691.756 196.985C693.186 199.802 693.901 203.073 693.901 206.8C693.901 210.527 693.186 213.82 691.756 216.68C690.369 219.497 688.463 221.685 686.036 223.245C683.609 224.762 680.901 225.52 677.911 225.52C675.398 225.52 673.166 225 671.216 223.96C669.309 222.92 667.814 221.577 666.731 219.93V242.29H655.616V188.73H666.731V193.865ZM682.591 206.8C682.591 204.027 681.811 201.86 680.251 200.3C678.734 198.697 676.849 197.895 674.596 197.895C672.386 197.895 670.501 198.697 668.941 200.3C667.424 201.903 666.666 204.092 666.666 206.865C666.666 209.638 667.424 211.827 668.941 213.43C670.501 215.033 672.386 215.835 674.596 215.835C676.806 215.835 678.691 215.033 680.251 213.43C681.811 211.783 682.591 209.573 682.591 206.8ZM733.922 206.28C733.922 207.32 733.857 208.403 733.727 209.53H708.572C708.745 211.783 709.46 213.517 710.717 214.73C712.017 215.9 713.599 216.485 715.462 216.485C718.235 216.485 720.164 215.315 721.247 212.975H733.077C732.47 215.358 731.365 217.503 729.762 219.41C728.202 221.317 726.23 222.812 723.847 223.895C721.464 224.978 718.799 225.52 715.852 225.52C712.299 225.52 709.135 224.762 706.362 223.245C703.589 221.728 701.422 219.562 699.862 216.745C698.302 213.928 697.522 210.635 697.522 206.865C697.522 203.095 698.28 199.802 699.797 196.985C701.357 194.168 703.524 192.002 706.297 190.485C709.07 188.968 712.255 188.21 715.852 188.21C719.362 188.21 722.482 188.947 725.212 190.42C727.942 191.893 730.065 193.995 731.582 196.725C733.142 199.455 733.922 202.64 733.922 206.28ZM722.547 203.355C722.547 201.448 721.897 199.932 720.597 198.805C719.297 197.678 717.672 197.115 715.722 197.115C713.859 197.115 712.277 197.657 710.977 198.74C709.72 199.823 708.94 201.362 708.637 203.355H722.547ZM756.296 225.52C752.742 225.52 749.536 224.762 746.676 223.245C743.859 221.728 741.627 219.562 739.981 216.745C738.377 213.928 737.576 210.635 737.576 206.865C737.576 203.138 738.399 199.867 740.046 197.05C741.692 194.19 743.946 192.002 746.806 190.485C749.666 188.968 752.872 188.21 756.426 188.21C759.979 188.21 763.186 188.968 766.046 190.485C768.906 192.002 771.159 194.19 772.806 197.05C774.452 199.867 775.276 203.138 775.276 206.865C775.276 210.592 774.431 213.885 772.741 216.745C771.094 219.562 768.819 221.728 765.916 223.245C763.056 224.762 759.849 225.52 756.296 225.52ZM756.296 215.9C758.419 215.9 760.217 215.12 761.691 213.56C763.207 212 763.966 209.768 763.966 206.865C763.966 203.962 763.229 201.73 761.756 200.17C760.326 198.61 758.549 197.83 756.426 197.83C754.259 197.83 752.461 198.61 751.031 200.17C749.601 201.687 748.886 203.918 748.886 206.865C748.886 209.768 749.579 212 750.966 213.56C752.396 215.12 754.172 215.9 756.296 215.9ZM792.288 193.865C793.371 192.175 794.866 190.81 796.773 189.77C798.679 188.73 800.911 188.21 803.468 188.21C806.458 188.21 809.166 188.968 811.593 190.485C814.019 192.002 815.926 194.168 817.313 196.985C818.743 199.802 819.458 203.073 819.458 206.8C819.458 210.527 818.743 213.82 817.313 216.68C815.926 219.497 814.019 221.685 811.593 223.245C809.166 224.762 806.458 225.52 803.468 225.52C800.954 225.52 798.723 225 796.773 223.96C794.866 222.92 793.371 221.577 792.288 219.93V242.29H781.173V188.73H792.288V193.865ZM808.148 206.8C808.148 204.027 807.368 201.86 805.808 200.3C804.291 198.697 802.406 197.895 800.153 197.895C797.943 197.895 796.058 198.697 794.498 200.3C792.981 201.903 792.223 204.092 792.223 206.865C792.223 209.638 792.981 211.827 794.498 213.43C796.058 215.033 797.943 215.835 800.153 215.835C802.363 215.835 804.248 215.033 805.808 213.43C807.368 211.783 808.148 209.573 808.148 206.8ZM836.404 176.9V225H825.289V176.9H836.404ZM878.649 206.28C878.649 207.32 878.584 208.403 878.454 209.53H853.299C853.472 211.783 854.187 213.517 855.444 214.73C856.744 215.9 858.325 216.485 860.189 216.485C862.962 216.485 864.89 215.315 865.974 212.975H877.804C877.197 215.358 876.092 217.503 874.489 219.41C872.929 221.317 870.957 222.812 868.574 223.895C866.19 224.978 863.525 225.52 860.579 225.52C857.025 225.52 853.862 224.762 851.089 223.245C848.315 221.728 846.149 219.562 844.589 216.745C843.029 213.928 842.249 210.635 842.249 206.865C842.249 203.095 843.007 199.802 844.524 196.985C846.084 194.168 848.25 192.002 851.024 190.485C853.797 188.968 856.982 188.21 860.579 188.21C864.089 188.21 867.209 188.947 869.939 190.42C872.669 191.893 874.792 193.995 876.309 196.725C877.869 199.455 878.649 202.64 878.649 206.28ZM867.274 203.355C867.274 201.448 866.624 199.932 865.324 198.805C864.024 197.678 862.399 197.115 860.449 197.115C858.585 197.115 857.004 197.657 855.704 198.74C854.447 199.823 853.667 201.362 853.364 203.355H867.274ZM909.402 176.9V225H898.287V176.9H909.402ZM923.047 184.96C921.097 184.96 919.493 184.397 918.237 183.27C917.023 182.1 916.417 180.67 916.417 178.98C916.417 177.247 917.023 175.817 918.237 174.69C919.493 173.52 921.097 172.935 923.047 172.935C924.953 172.935 926.513 173.52 927.727 174.69C928.983 175.817 929.612 177.247 929.612 178.98C929.612 180.67 928.983 182.1 927.727 183.27C926.513 184.397 924.953 184.96 923.047 184.96ZM928.572 188.73V225H917.457V188.73H928.572ZM958.792 225L947.742 209.79V225H936.627V176.9H947.742V203.485L958.727 188.73H972.442L957.362 206.93L972.572 225H958.792ZM1011 206.28C1011 207.32 1010.93 208.403 1010.8 209.53H985.647C985.821 211.783 986.536 213.517 987.792 214.73C989.092 215.9 990.674 216.485 992.537 216.485C995.311 216.485 997.239 215.315 998.322 212.975H1010.15C1009.55 215.358 1008.44 217.503 1006.84 219.41C1005.28 221.317 1003.31 222.812 1000.92 223.895C998.539 224.978 995.874 225.52 992.927 225.52C989.374 225.52 986.211 224.762 983.437 223.245C980.664 221.728 978.497 219.562 976.937 216.745C975.377 213.928 974.597 210.635 974.597 206.865C974.597 203.095 975.356 199.802 976.872 196.985C978.432 194.168 980.599 192.002 983.372 190.485C986.146 188.968 989.331 188.21 992.927 188.21C996.437 188.21 999.557 188.947 1002.29 190.42C1005.02 191.893 1007.14 193.995 1008.66 196.725C1010.22 199.455 1011 202.64 1011 206.28ZM999.622 203.355C999.622 201.448 998.972 199.932 997.672 198.805C996.372 197.678 994.747 197.115 992.797 197.115C990.934 197.115 989.352 197.657 988.052 198.74C986.796 199.823 986.016 201.362 985.712 203.355H999.622ZM1067.69 188.73L1044.94 242.225H1032.98L1041.3 223.765L1026.54 188.73H1038.96L1047.34 211.415L1055.66 188.73H1067.69ZM1088.21 225.52C1084.66 225.52 1081.45 224.762 1078.59 223.245C1075.78 221.728 1073.55 219.562 1071.9 216.745C1070.3 213.928 1069.49 210.635 1069.49 206.865C1069.49 203.138 1070.32 199.867 1071.96 197.05C1073.61 194.19 1075.86 192.002 1078.72 190.485C1081.58 188.968 1084.79 188.21 1088.34 188.21C1091.9 188.21 1095.1 188.968 1097.96 190.485C1100.82 192.002 1103.08 194.19 1104.72 197.05C1106.37 199.867 1107.19 203.138 1107.19 206.865C1107.19 210.592 1106.35 213.885 1104.66 216.745C1103.01 219.562 1100.74 221.728 1097.83 223.245C1094.97 224.762 1091.77 225.52 1088.21 225.52ZM1088.21 215.9C1090.34 215.9 1092.14 215.12 1093.61 213.56C1095.13 212 1095.88 209.768 1095.88 206.865C1095.88 203.962 1095.15 201.73 1093.67 200.17C1092.24 198.61 1090.47 197.83 1088.34 197.83C1086.18 197.83 1084.38 198.61 1082.95 200.17C1081.52 201.687 1080.8 203.918 1080.8 206.865C1080.8 209.768 1081.5 212 1082.88 213.56C1084.31 215.12 1086.09 215.9 1088.21 215.9ZM1148.91 188.73V225H1137.79V220.06C1136.66 221.663 1135.13 222.963 1133.18 223.96C1131.27 224.913 1129.15 225.39 1126.81 225.39C1124.03 225.39 1121.58 224.783 1119.46 223.57C1117.34 222.313 1115.69 220.515 1114.52 218.175C1113.35 215.835 1112.77 213.083 1112.77 209.92V188.73H1123.82V208.425C1123.82 210.852 1124.44 212.737 1125.7 214.08C1126.96 215.423 1128.65 216.095 1130.77 216.095C1132.94 216.095 1134.65 215.423 1135.91 214.08C1137.16 212.737 1137.79 210.852 1137.79 208.425V188.73H1148.91ZM1198.61 197.57V206.8H1170.01V197.57H1198.61Z" fill="#4345C4"/>
<path d="M119.977 303.416C118.241 303.416 116.757 304.956 115.525 308.036C114.293 311.116 113.677 314.224 113.677 317.36C113.677 324.248 115.665 327.692 119.641 327.692C122.161 327.692 125.017 326.488 128.209 324.08L130.897 327.776C128.545 330.352 125.717 332.368 122.413 333.824C119.165 335.28 115.917 336.008 112.669 336.008C108.301 336.008 104.745 334.692 102.001 332.06C99.3131 329.372 97.9691 325.34 97.9691 319.964C97.9691 313.468 99.9571 308.148 103.933 304.004C107.965 299.86 113.229 297.788 119.725 297.788C123.925 297.788 127.229 298.656 129.637 300.392C132.045 302.072 133.249 304.228 133.249 306.86C133.249 309.436 132.465 311.676 130.897 313.58C129.049 313.58 127.033 313.244 124.849 312.572C122.721 311.844 121.013 310.948 119.725 309.884L120.985 303.584C120.649 303.472 120.313 303.416 119.977 303.416ZM134.831 328.196C134.831 325.844 135.559 321.98 137.015 316.604C138.527 311.228 139.283 307.924 139.283 306.692C139.283 305.46 138.275 303.668 136.259 301.316L136.427 300.056C141.523 298.936 147.487 298.376 154.319 298.376C154.767 299.328 154.991 300.84 154.991 302.912C154.991 304.984 154.207 308.904 152.639 314.672C151.127 320.44 150.371 323.856 150.371 324.92C150.371 326.376 151.071 327.104 152.471 327.104C153.423 327.104 154.627 326.74 156.083 326.012C156.251 325.116 156.755 322.764 157.595 318.956C159.555 310.5 160.535 304.172 160.535 299.972C163.111 298.852 167.507 298.292 173.723 298.292H175.991C175.991 300.812 175.235 305.74 173.723 313.076C172.267 320.412 171.511 324.64 171.455 325.76C171.455 326.88 171.707 327.44 172.211 327.44L176.327 326.348L177.839 330.548C176.215 331.836 173.863 333.068 170.783 334.244C167.703 335.42 164.987 336.008 162.635 336.008C159.163 336.008 157.007 334.608 156.167 331.808C151.519 334.608 147.067 336.008 142.811 336.008C137.491 336.008 134.831 333.404 134.831 328.196ZM181.534 335.504H180.862C180.694 334.72 180.61 333.516 180.61 331.892C180.61 330.212 181.282 325.928 182.626 319.04C184.026 312.096 184.726 308.176 184.726 307.28C184.726 306.328 184.474 305.376 183.97 304.424C183.466 303.416 182.962 302.66 182.458 302.156L181.702 301.4L181.87 300.14C185.23 299.076 190.802 298.544 198.586 298.544C199.314 299.944 199.762 301.596 199.93 303.5C203.346 299.692 206.37 297.788 209.002 297.788C212.418 297.788 214.294 300.672 214.63 306.44C214.518 306.552 214.378 306.748 214.21 307.028C214.042 307.252 213.65 307.672 213.034 308.288C212.418 308.904 211.774 309.464 211.102 309.968C209.198 311.256 207.182 312.012 205.054 312.236C204.998 312.236 204.606 311.62 203.878 310.388C203.206 309.156 202.618 308.54 202.114 308.54C201.666 308.54 200.798 309.044 199.51 310.052C199.342 311.06 199.006 312.768 198.502 315.176C198.054 317.584 197.69 319.572 197.41 321.14C196.57 325.284 196.15 328.756 196.15 331.556L196.234 334.076C193.77 335.028 188.87 335.504 181.534 335.504ZM232.908 303.5C232.908 305.964 232.208 309.8 230.808 315.008C229.408 320.16 228.708 323.52 228.708 325.088C228.708 326.656 229.016 327.44 229.632 327.44C230.248 327.44 231.368 327.16 232.992 326.6L233.748 326.264L235.26 330.464C233.356 331.92 230.976 333.208 228.12 334.328C225.32 335.448 222.772 336.008 220.476 336.008C218.18 336.008 216.36 335.364 215.016 334.076C213.728 332.788 213.084 330.94 213.084 328.532C213.084 326.068 213.756 322.344 215.1 317.36C216.5 312.32 217.2 309.128 217.2 307.784C217.2 305.712 216.472 303.752 215.016 301.904L214.344 300.98L214.596 299.552C217.508 298.656 223.164 298.208 231.564 298.208C232.46 299.216 232.908 300.98 232.908 303.5ZM226.608 291.656C224.088 291.656 222.1 290.984 220.644 289.64C219.244 288.296 218.544 286.588 218.544 284.516C218.544 282.388 219.412 280.624 221.148 279.224C222.94 277.768 225.096 277.04 227.616 277.04C230.136 277.04 232.096 277.628 233.496 278.804C234.896 279.98 235.596 281.632 235.596 283.76C235.596 285.888 234.728 287.736 232.992 289.304C231.312 290.872 229.184 291.656 226.608 291.656ZM251.288 336.008C246.92 336.008 243.476 334.636 240.956 331.892C238.436 329.092 237.176 325.172 237.176 320.132C237.176 313.972 238.996 308.764 242.636 304.508C246.276 300.196 251.064 298.04 257 298.04L260.78 298.376C262.124 297.984 263.384 297.788 264.56 297.788C267.36 297.788 269.348 298.74 270.524 300.644C271.756 302.548 272.456 305.264 272.624 308.792C274.976 308.68 277.216 308.316 279.344 307.7L280.52 307.364C280.912 307.756 281.192 308.932 281.36 310.892L281.444 311.816C278.924 313.104 275.844 314.112 272.204 314.84C270.972 320.776 268.536 325.788 264.896 329.876C261.256 333.964 256.72 336.008 251.288 336.008ZM252.968 319.796C252.968 325.004 254.284 327.608 256.916 327.608C258.764 327.608 260.64 326.432 262.544 324.08C264.504 321.728 265.848 318.872 266.576 315.512C260.864 315.512 258.008 312.768 258.008 307.28C258.008 306.328 258.092 305.348 258.26 304.34C257.7 304.34 257.28 304.424 257 304.592C256.048 305.6 255.124 307.644 254.228 310.724C253.388 313.748 252.968 316.772 252.968 319.796ZM275.104 328.196C275.104 325.844 275.832 321.98 277.288 316.604C278.8 311.228 279.556 307.924 279.556 306.692C279.556 305.46 278.548 303.668 276.532 301.316L276.7 300.056C281.796 298.936 287.76 298.376 294.592 298.376C295.04 299.328 295.264 300.84 295.264 302.912C295.264 304.984 294.48 308.904 292.912 314.672C291.4 320.44 290.644 323.856 290.644 324.92C290.644 326.376 291.344 327.104 292.744 327.104C293.696 327.104 294.9 326.74 296.356 326.012C296.524 325.116 297.028 322.764 297.868 318.956C299.828 310.5 300.808 304.172 300.808 299.972C303.384 298.852 307.78 298.292 313.996 298.292H316.264C316.264 300.812 315.508 305.74 313.996 313.076C312.54 320.412 311.784 324.64 311.728 325.76C311.728 326.88 311.98 327.44 312.484 327.44L316.6 326.348L318.112 330.548C316.488 331.836 314.136 333.068 311.056 334.244C307.976 335.42 305.26 336.008 302.908 336.008C299.436 336.008 297.28 334.608 296.44 331.808C291.792 334.608 287.34 336.008 283.084 336.008C277.764 336.008 275.104 333.404 275.104 328.196ZM348.603 323.66C348.603 327.132 346.979 330.072 343.731 332.48C340.539 334.832 336.787 336.008 332.475 336.008C328.163 336.008 324.607 335.28 321.807 333.824C319.063 332.368 317.691 330.996 317.691 329.708C317.691 328.364 318.531 326.684 320.211 324.668C321.947 322.596 323.711 321.392 325.503 321.056C328.079 322.456 330.403 325.564 332.475 330.38C334.099 330.38 334.911 329.848 334.911 328.784C334.911 328 334.687 327.272 334.239 326.6C333.791 325.928 333.455 325.396 333.231 325.004C333.007 324.612 332.615 324.08 332.055 323.408C331.495 322.68 331.075 322.148 330.795 321.812C329.395 320.132 328.135 318.592 327.015 317.192C324.327 313.832 322.983 310.892 322.983 308.372C322.983 305.796 323.795 303.696 325.419 302.072C328.219 299.216 332.335 297.788 337.767 297.788C341.183 297.788 343.899 298.46 345.915 299.804C347.931 301.092 348.939 303.052 348.939 305.684C348.939 308.26 347.399 311.228 344.319 314.588C347.175 317.892 348.603 320.916 348.603 323.66ZM342.975 308.288C343.647 307.224 343.983 306.272 343.983 305.432C343.983 304.592 343.619 303.948 342.891 303.5C342.163 303.052 341.295 302.828 340.287 302.828C339.279 302.828 338.495 303.08 337.935 303.584C337.431 304.032 337.179 304.648 337.179 305.432C337.179 306.216 338.383 307.952 340.791 310.64C341.575 310.08 342.303 309.296 342.975 308.288ZM410.34 300.98C409.164 304.62 408.156 308.96 407.316 314C406.476 318.984 406.056 322.484 406.056 324.5C406.056 326.46 406.364 327.44 406.98 327.44L411.18 326.264L412.692 330.464C410.9 331.864 408.604 333.152 405.804 334.328C403.06 335.448 400.624 336.008 398.496 336.008C394.856 336.008 392.56 334.44 391.608 331.304C387.184 334.44 383.264 336.008 379.848 336.008C376.488 336.008 373.884 334.776 372.036 332.312C370.188 329.848 369.264 326.32 369.264 321.728C369.264 315.4 370.888 309.828 374.136 305.012C377.384 300.196 381.668 297.788 386.988 297.788C389.9 297.788 392.868 298.6 395.892 300.224C396.34 299.216 396.704 298.488 396.984 298.04C401.016 298.04 405.468 299.02 410.34 300.98ZM385.056 320.72C385.056 323.52 385.252 325.284 385.644 326.012C386.036 326.74 386.764 327.104 387.828 327.104C388.892 327.104 389.928 326.684 390.936 325.844C391.16 319.348 392.224 312.544 394.128 305.432C393.288 304.928 392.308 304.676 391.188 304.676C390.124 304.676 389.144 305.292 388.248 306.524C387.408 307.756 386.764 309.296 386.316 311.144C385.476 314.672 385.056 317.864 385.056 320.72ZM415.821 335.504H414.393C414.393 332.032 415.177 326.768 416.745 319.712C418.369 312.656 419.181 308.596 419.181 307.532C419.181 306.468 418.929 305.432 418.425 304.424C417.921 303.416 417.417 302.66 416.913 302.156L416.157 301.4L416.325 300.14C419.629 299.076 425.397 298.544 433.629 298.544C434.189 299.832 434.581 301.176 434.805 302.576C439.901 299.44 444.185 297.872 447.657 297.872C450.009 297.872 451.857 298.656 453.201 300.224C454.545 301.736 455.217 303.584 455.217 305.768C455.217 307.896 454.601 311.34 453.369 316.1C452.137 320.86 451.521 323.968 451.521 325.424C451.521 326.824 451.717 327.524 452.109 327.524L456.561 326.348L458.073 330.548C456.281 331.892 453.929 333.152 451.017 334.328C448.161 335.448 445.529 336.008 443.121 336.008C438.361 336.008 435.981 333.544 435.981 328.616C435.981 326.488 436.569 323.016 437.745 318.2C438.921 313.384 439.509 310.388 439.509 309.212C439.509 307.98 439.117 307.364 438.333 307.364C437.325 307.364 435.981 307.924 434.301 309.044C434.077 310.052 433.517 312.488 432.621 316.352C430.829 324.472 429.933 330.324 429.933 333.908C427.189 334.972 422.485 335.504 415.821 335.504ZM489.633 336.008C486.161 336.008 483.921 334.664 482.913 331.976C478.657 334.664 474.849 336.008 471.489 336.008C468.185 336.008 465.497 334.888 463.425 332.648C461.409 330.352 460.401 326.656 460.401 321.56C460.401 314.896 462.081 309.268 465.441 304.676C468.857 300.084 473.253 297.788 478.629 297.788C481.261 297.788 483.893 298.404 486.525 299.636C488.597 290.172 489.633 283.368 489.633 279.224C489.633 277.992 489.549 276.76 489.381 275.528C494.589 274.072 499.601 273.344 504.417 273.344C504.865 274.072 505.089 275.808 505.089 278.552C505.089 281.24 503.801 288.52 501.225 300.392C498.705 312.264 497.445 320.216 497.445 324.248C497.445 326.376 497.809 327.44 498.537 327.44L502.149 326.264L503.661 330.548C498.733 334.188 494.057 336.008 489.633 336.008ZM478.629 327.524C479.637 327.524 480.757 327.188 481.989 326.516V326.432C482.213 321.896 483.305 314.756 485.265 305.012C484.145 304.676 483.333 304.508 482.829 304.508C481.653 304.508 480.617 305.096 479.721 306.272C478.825 307.448 478.125 308.96 477.621 310.808C476.669 314.616 476.193 318.368 476.193 322.064C476.193 325.704 477.005 327.524 478.629 327.524ZM520.141 353.816C519.693 353.088 519.469 351.548 519.469 349.196C519.469 346.844 520.533 340.46 522.661 330.044C524.845 319.628 525.937 313.104 525.937 310.472C525.937 307.84 525.685 305.852 525.181 304.508C524.677 303.108 524.173 302.212 523.669 301.82L522.913 301.232L523.081 299.972C526.441 298.908 532.125 298.376 540.133 298.376C540.581 299.216 540.945 300.308 541.225 301.652C544.809 299.076 548.197 297.788 551.389 297.788C554.581 297.788 557.185 299.02 559.201 301.484C561.273 303.892 562.309 308.008 562.309 313.832C562.309 319.656 560.769 324.808 557.689 329.288C554.665 333.768 550.213 336.008 544.333 336.008C541.757 336.008 539.237 335.504 536.773 334.496C535.485 340.824 534.841 346.396 534.841 351.212C530.809 352.668 525.909 353.536 520.141 353.816ZM540.469 328.952C541.981 328.952 543.269 327.832 544.333 325.592C546.237 321.672 547.189 316.912 547.189 311.312C547.189 308.008 546.377 306.356 544.753 306.356C543.913 306.356 542.793 306.664 541.393 307.28C541.057 311.984 539.937 319.068 538.033 328.532C538.985 328.812 539.797 328.952 540.469 328.952ZM579.085 336.008C574.717 336.008 571.273 334.636 568.753 331.892C566.233 329.092 564.973 325.172 564.973 320.132C564.973 313.972 566.793 308.764 570.433 304.508C574.073 300.196 578.861 298.04 584.797 298.04L588.577 298.376C589.921 297.984 591.181 297.788 592.357 297.788C595.157 297.788 597.145 298.74 598.321 300.644C599.553 302.548 600.253 305.264 600.421 308.792C602.773 308.68 605.013 308.316 607.141 307.7L608.317 307.364C608.709 307.756 608.989 308.932 609.157 310.892L609.241 311.816C606.721 313.104 603.641 314.112 600.001 314.84C598.769 320.776 596.333 325.788 592.693 329.876C589.053 333.964 584.517 336.008 579.085 336.008ZM580.765 319.796C580.765 325.004 582.081 327.608 584.713 327.608C586.561 327.608 588.437 326.432 590.341 324.08C592.301 321.728 593.645 318.872 594.373 315.512C588.661 315.512 585.805 312.768 585.805 307.28C585.805 306.328 585.889 305.348 586.057 304.34C585.497 304.34 585.077 304.424 584.797 304.592C583.845 305.6 582.921 307.644 582.025 310.724C581.185 313.748 580.765 316.772 580.765 319.796ZM631.283 323.66C631.283 327.132 629.659 330.072 626.411 332.48C623.219 334.832 619.467 336.008 615.155 336.008C610.843 336.008 607.287 335.28 604.487 333.824C601.743 332.368 600.371 330.996 600.371 329.708C600.371 328.364 601.211 326.684 602.891 324.668C604.627 322.596 606.391 321.392 608.183 321.056C610.759 322.456 613.083 325.564 615.155 330.38C616.779 330.38 617.591 329.848 617.591 328.784C617.591 328 617.367 327.272 616.919 326.6C616.471 325.928 616.135 325.396 615.911 325.004C615.687 324.612 615.295 324.08 614.735 323.408C614.175 322.68 613.755 322.148 613.475 321.812C612.075 320.132 610.815 318.592 609.695 317.192C607.007 313.832 605.663 310.892 605.663 308.372C605.663 305.796 606.475 303.696 608.099 302.072C610.899 299.216 615.015 297.788 620.447 297.788C623.863 297.788 626.579 298.46 628.595 299.804C630.611 301.092 631.619 303.052 631.619 305.684C631.619 308.26 630.079 311.228 626.999 314.588C629.855 317.892 631.283 320.916 631.283 323.66ZM625.655 308.288C626.327 307.224 626.663 306.272 626.663 305.432C626.663 304.592 626.299 303.948 625.571 303.5C624.843 303.052 623.975 302.828 622.967 302.828C621.959 302.828 621.175 303.08 620.615 303.584C620.111 304.032 619.859 304.648 619.859 305.432C619.859 306.216 621.063 307.952 623.471 310.64C624.255 310.08 624.983 309.296 625.655 308.288ZM663.603 323.66C663.603 327.132 661.979 330.072 658.731 332.48C655.539 334.832 651.787 336.008 647.475 336.008C643.163 336.008 639.607 335.28 636.807 333.824C634.063 332.368 632.691 330.996 632.691 329.708C632.691 328.364 633.531 326.684 635.211 324.668C636.947 322.596 638.711 321.392 640.503 321.056C643.079 322.456 645.403 325.564 647.475 330.38C649.099 330.38 649.911 329.848 649.911 328.784C649.911 328 649.687 327.272 649.239 326.6C648.791 325.928 648.455 325.396 648.231 325.004C648.007 324.612 647.615 324.08 647.055 323.408C646.495 322.68 646.075 322.148 645.795 321.812C644.395 320.132 643.135 318.592 642.015 317.192C639.327 313.832 637.983 310.892 637.983 308.372C637.983 305.796 638.795 303.696 640.419 302.072C643.219 299.216 647.335 297.788 652.767 297.788C656.183 297.788 658.899 298.46 660.915 299.804C662.931 301.092 663.939 303.052 663.939 305.684C663.939 308.26 662.399 311.228 659.319 314.588C662.175 317.892 663.603 320.916 663.603 323.66ZM657.975 308.288C658.647 307.224 658.983 306.272 658.983 305.432C658.983 304.592 658.619 303.948 657.891 303.5C657.163 303.052 656.295 302.828 655.287 302.828C654.279 302.828 653.495 303.08 652.935 303.584C652.431 304.032 652.179 304.648 652.179 305.432C652.179 306.216 653.383 307.952 655.791 310.64C656.575 310.08 657.303 309.296 657.975 308.288ZM687.608 303.5C687.608 305.964 686.908 309.8 685.508 315.008C684.108 320.16 683.408 323.52 683.408 325.088C683.408 326.656 683.716 327.44 684.332 327.44C684.948 327.44 686.068 327.16 687.692 326.6L688.448 326.264L689.96 330.464C688.056 331.92 685.676 333.208 682.82 334.328C680.02 335.448 677.472 336.008 675.176 336.008C672.88 336.008 671.06 335.364 669.716 334.076C668.428 332.788 667.784 330.94 667.784 328.532C667.784 326.068 668.456 322.344 669.8 317.36C671.2 312.32 671.9 309.128 671.9 307.784C671.9 305.712 671.172 303.752 669.716 301.904L669.044 300.98L669.296 299.552C672.208 298.656 677.864 298.208 686.264 298.208C687.16 299.216 687.608 300.98 687.608 303.5ZM681.308 291.656C678.788 291.656 676.8 290.984 675.344 289.64C673.944 288.296 673.244 286.588 673.244 284.516C673.244 282.388 674.112 280.624 675.848 279.224C677.64 277.768 679.796 277.04 682.316 277.04C684.836 277.04 686.796 277.628 688.196 278.804C689.596 279.98 690.296 281.632 690.296 283.76C690.296 285.888 689.428 287.736 687.692 289.304C686.012 290.872 683.884 291.656 681.308 291.656ZM717.663 276.872C717.663 280.96 716.291 288.912 713.547 300.728C716.795 298.768 719.791 297.788 722.535 297.788C725.279 297.788 727.687 298.936 729.759 301.232C731.831 303.528 732.867 307.728 732.867 313.832C732.867 319.88 731.187 325.088 727.827 329.456C724.523 333.824 720.435 336.008 715.563 336.008C712.651 336.008 709.767 335.224 706.911 333.656C701.311 335 696.579 335.672 692.715 335.672C692.435 335.504 692.295 334.552 692.295 332.816C692.295 328.728 693.919 319.964 697.167 306.524C700.471 293.084 702.123 283.956 702.123 279.14C702.123 277.908 702.067 276.732 701.955 275.612C707.387 274.1 712.455 273.344 717.159 273.344C717.495 273.904 717.663 275.08 717.663 276.872ZM715.059 306.188C714.275 306.188 713.267 306.496 712.035 307.112C709.627 317.472 708.227 324.444 707.835 328.028C708.843 328.532 709.767 328.784 710.607 328.784C712.511 328.784 714.051 326.74 715.227 322.652C716.459 318.564 717.075 314.812 717.075 311.396C717.075 307.924 716.403 306.188 715.059 306.188ZM759.036 330.296C757.244 331.864 754.892 333.208 751.98 334.328C749.068 335.448 746.408 336.008 744 336.008C741.648 336.008 739.716 335.336 738.204 333.992C736.692 332.592 735.936 330.604 735.936 328.028C735.936 325.452 737.336 318.284 740.136 306.524C742.992 294.708 744.42 285.944 744.42 280.232C744.42 279 744.252 277.432 743.916 275.528C749.18 274.072 754.276 273.344 759.204 273.344C759.708 274.24 759.96 275.696 759.96 277.712C759.96 281.52 758.532 289.836 755.676 302.66C752.876 315.428 751.476 322.792 751.476 324.752C751.476 326.712 751.812 327.692 752.484 327.692C753.044 327.692 754.248 327.328 756.096 326.6L757.02 326.18L759.036 330.296ZM800.689 298.376H801.361C801.081 299.832 800.605 302.968 799.933 307.784C798.421 318.76 796.797 327.048 795.061 332.648C790.749 346.76 783.833 353.816 774.313 353.816C771.457 353.816 769.133 353.2 767.341 351.968C765.605 350.792 764.737 349.224 764.737 347.264C764.737 345.36 765.185 343.764 766.081 342.476C767.033 341.244 768.377 340.208 770.113 339.368C773.081 337.912 776.721 336.708 781.033 335.756C781.481 333.628 781.761 332.256 781.873 331.64C777.505 333.992 773.361 335.168 769.441 335.168C764.065 335.168 761.377 332.536 761.377 327.272C761.377 325.424 761.993 321.812 763.225 316.436C764.457 311.004 765.073 307.252 765.073 305.18C765.073 303.108 764.933 301.568 764.653 300.56C771.261 299.16 776.385 298.46 780.025 298.46C780.473 299.132 780.697 300.476 780.697 302.492C780.697 304.452 780.053 308.288 778.765 314C777.533 319.712 776.917 323.072 776.917 324.08C776.917 325.816 777.757 326.684 779.437 326.684C780.389 326.684 781.481 326.432 782.713 325.928C783.161 323.072 783.777 318.732 784.561 312.908C785.401 307.028 785.989 302.996 786.325 300.812C787.781 300.14 789.965 299.58 792.877 299.132C795.845 298.628 798.449 298.376 800.689 298.376ZM770.701 345.668C770.701 346.956 771.541 347.6 773.221 347.6C774.061 347.6 775.153 347.012 776.497 345.836C777.897 344.716 779.017 343.036 779.857 340.796C773.753 341.86 770.701 343.484 770.701 345.668ZM845.636 277.796C845.636 281.716 844.208 289.78 841.352 301.988C846.168 299.244 849.948 297.872 852.692 297.872C855.492 297.872 857.564 298.628 858.908 300.14C860.252 301.596 860.924 303.444 860.924 305.684C860.924 307.868 860.308 311.34 859.076 316.1C857.844 320.804 857.228 323.884 857.228 325.34C857.228 326.796 857.452 327.524 857.9 327.524L862.268 326.348L863.78 330.548C862.044 331.836 859.636 333.068 856.556 334.244C853.532 335.42 850.844 336.008 848.492 336.008C843.956 336.008 841.688 333.432 841.688 328.28C841.688 325.928 842.276 322.456 843.452 317.864C844.628 313.272 845.216 310.388 845.216 309.212C845.216 307.98 844.796 307.364 843.956 307.364C842.78 307.364 841.352 307.924 839.672 309.044C837.152 319.74 835.892 327.188 835.892 331.388L835.976 333.404C830.264 334.916 825.14 335.672 820.604 335.672C820.268 335.504 820.1 334.608 820.1 332.984C820.1 329.512 821.752 320.916 825.056 307.196C828.416 293.476 830.096 284.236 830.096 279.476C830.096 278.02 829.984 276.732 829.76 275.612C835.192 274.1 840.288 273.344 845.048 273.344C845.44 274.296 845.636 275.78 845.636 277.796ZM886.287 303.5C886.287 305.964 885.587 309.8 884.187 315.008C882.787 320.16 882.087 323.52 882.087 325.088C882.087 326.656 882.395 327.44 883.011 327.44C883.627 327.44 884.747 327.16 886.371 326.6L887.127 326.264L888.639 330.464C886.735 331.92 884.355 333.208 881.499 334.328C878.699 335.448 876.151 336.008 873.855 336.008C871.559 336.008 869.739 335.364 868.395 334.076C867.107 332.788 866.463 330.94 866.463 328.532C866.463 326.068 867.135 322.344 868.479 317.36C869.879 312.32 870.579 309.128 870.579 307.784C870.579 305.712 869.851 303.752 868.395 301.904L867.723 300.98L867.975 299.552C870.887 298.656 876.543 298.208 884.943 298.208C885.839 299.216 886.287 300.98 886.287 303.5ZM879.987 291.656C877.467 291.656 875.479 290.984 874.023 289.64C872.623 288.296 871.923 286.588 871.923 284.516C871.923 282.388 872.791 280.624 874.527 279.224C876.319 277.768 878.475 277.04 880.995 277.04C883.515 277.04 885.475 277.628 886.875 278.804C888.275 279.98 888.975 281.632 888.975 283.76C888.975 285.888 888.107 287.736 886.371 289.304C884.691 290.872 882.563 291.656 879.987 291.656ZM892.991 335.504H892.319C892.151 334.72 892.067 333.516 892.067 331.892C892.067 330.212 892.739 325.928 894.083 319.04C895.483 312.096 896.183 308.176 896.183 307.28C896.183 306.328 895.931 305.376 895.427 304.424C894.923 303.416 894.419 302.66 893.915 302.156L893.159 301.4L893.327 300.14C896.687 299.076 902.259 298.544 910.043 298.544C910.771 299.944 911.219 301.596 911.387 303.5C914.803 299.692 917.827 297.788 920.459 297.788C923.875 297.788 925.751 300.672 926.087 306.44C925.975 306.552 925.835 306.748 925.667 307.028C925.499 307.252 925.107 307.672 924.491 308.288C923.875 308.904 923.231 309.464 922.559 309.968C920.655 311.256 918.639 312.012 916.511 312.236C916.455 312.236 916.063 311.62 915.335 310.388C914.663 309.156 914.075 308.54 913.571 308.54C913.123 308.54 912.255 309.044 910.967 310.052C910.799 311.06 910.463 312.768 909.959 315.176C909.511 317.584 909.147 319.572 908.867 321.14C908.027 325.284 907.607 328.756 907.607 331.556L907.691 334.076C905.227 335.028 900.327 335.504 892.991 335.504ZM944.365 303.5C944.365 305.964 943.665 309.8 942.265 315.008C940.865 320.16 940.165 323.52 940.165 325.088C940.165 326.656 940.473 327.44 941.089 327.44C941.705 327.44 942.825 327.16 944.449 326.6L945.205 326.264L946.717 330.464C944.813 331.92 942.433 333.208 939.577 334.328C936.777 335.448 934.229 336.008 931.933 336.008C929.637 336.008 927.817 335.364 926.473 334.076C925.185 332.788 924.541 330.94 924.541 328.532C924.541 326.068 925.213 322.344 926.557 317.36C927.957 312.32 928.657 309.128 928.657 307.784C928.657 305.712 927.929 303.752 926.473 301.904L925.801 300.98L926.053 299.552C928.965 298.656 934.621 298.208 943.021 298.208C943.917 299.216 944.365 300.98 944.365 303.5ZM938.065 291.656C935.545 291.656 933.557 290.984 932.101 289.64C930.701 288.296 930.001 286.588 930.001 284.516C930.001 282.388 930.869 280.624 932.605 279.224C934.397 277.768 936.553 277.04 939.073 277.04C941.593 277.04 943.553 277.628 944.953 278.804C946.353 279.98 947.053 281.632 947.053 283.76C947.053 285.888 946.185 287.736 944.449 289.304C942.769 290.872 940.641 291.656 938.065 291.656ZM951.321 335.504H949.893C949.893 332.032 950.677 326.768 952.245 319.712C953.869 312.656 954.681 308.596 954.681 307.532C954.681 306.468 954.429 305.432 953.925 304.424C953.421 303.416 952.917 302.66 952.413 302.156L951.657 301.4L951.825 300.14C955.129 299.076 960.897 298.544 969.129 298.544C969.689 299.832 970.081 301.176 970.305 302.576C975.401 299.44 979.685 297.872 983.157 297.872C985.509 297.872 987.357 298.656 988.701 300.224C990.045 301.736 990.717 303.584 990.717 305.768C990.717 307.896 990.101 311.34 988.869 316.1C987.637 320.86 987.021 323.968 987.021 325.424C987.021 326.824 987.217 327.524 987.609 327.524L992.061 326.348L993.573 330.548C991.781 331.892 989.429 333.152 986.517 334.328C983.661 335.448 981.029 336.008 978.621 336.008C973.861 336.008 971.481 333.544 971.481 328.616C971.481 326.488 972.069 323.016 973.245 318.2C974.421 313.384 975.009 310.388 975.009 309.212C975.009 307.98 974.617 307.364 973.833 307.364C972.825 307.364 971.481 307.924 969.801 309.044C969.577 310.052 969.017 312.488 968.121 316.352C966.329 324.472 965.433 330.324 965.433 333.908C962.689 334.972 957.985 335.504 951.321 335.504ZM1017.07 331.388C1013.15 333.516 1009.65 334.58 1006.57 334.58C1003.54 334.58 1001 333.376 998.925 330.968C996.909 328.504 995.901 324.864 995.901 320.048C995.901 313.608 997.637 308.288 1001.11 304.088C1004.64 299.888 1008.84 297.788 1013.71 297.788C1016.06 297.788 1018.72 298.432 1021.69 299.72C1025.16 298.656 1029.11 298.124 1033.53 298.124H1034.96C1035.24 298.684 1035.38 299.944 1035.38 301.904C1035.38 303.808 1035.02 307.588 1034.29 313.244C1033.62 318.9 1032.86 323.632 1032.02 327.44C1030.23 335.56 1027.43 341.972 1023.62 346.676C1019.87 351.436 1015.14 353.816 1009.42 353.816C1006.62 353.816 1004.33 353.2 1002.54 351.968C1000.8 350.736 999.933 349.168 999.933 347.264C999.933 345.36 1000.38 343.764 1001.28 342.476C1002.23 341.244 1003.57 340.208 1005.31 339.368C1008.28 337.912 1011.92 336.708 1016.23 335.756L1017.07 331.388ZM1017.57 304.592C1015.61 304.592 1014.1 306.272 1013.04 309.632C1012.03 312.992 1011.52 316.632 1011.52 320.552C1011.52 324.472 1012.45 326.432 1014.3 326.432C1015.08 326.432 1016.23 326.04 1017.74 325.256C1018.19 320.72 1018.92 314 1019.92 305.096C1019.08 304.76 1018.3 304.592 1017.57 304.592ZM1008 347.6C1009.06 347.6 1010.26 347.068 1011.61 346.004C1013.01 344.94 1014.16 343.204 1015.05 340.796C1008.95 341.86 1005.9 343.484 1005.9 345.668C1006.01 346.956 1006.71 347.6 1008 347.6Z" fill="#4345C4"/>
<path d="M1098.5 339.469C1115.33 339.469 1128.97 325.827 1128.97 309C1128.97 292.173 1115.33 278.531 1098.5 278.531C1081.67 278.531 1068.03 292.173 1068.03 309C1068.03 325.827 1081.67 339.469 1098.5 339.469Z" stroke="#4345C4" stroke-width="4.5"/>
<path d="M1082.25 313.062C1083.88 319.969 1090.78 325.25 1098.5 325.25C1106.22 325.25 1113.12 319.969 1114.75 313.062" stroke="#4345C4" stroke-width="4.5" stroke-linecap="round"/>
<path d="M1090.38 304.938C1092.62 304.938 1094.44 303.119 1094.44 300.875C1094.44 298.631 1092.62 296.812 1090.38 296.812C1088.13 296.812 1086.31 298.631 1086.31 300.875C1086.31 303.119 1088.13 304.938 1090.38 304.938Z" fill="#4345C4"/>
<path d="M1106.62 304.938C1108.87 304.938 1110.69 303.119 1110.69 300.875C1110.69 298.631 1108.87 296.812 1106.62 296.812C1104.38 296.812 1102.56 298.631 1102.56 300.875C1102.56 303.119 1104.38 304.938 1106.62 304.938Z" fill="#4345C4"/>
</svg>
